<svg version="1.2" xmlns="http://www.w3.org/2000/svg" viewBox="0 0 538 520" width="538" height="520"><style>.s0{fill:#ffffff}</style><path class="s0" d="m274.4 481.8c2.1 12.5-6.4 24.3-18.8 26.3c-12.6 2.1-24.3-6.4-26.3-18.8l-19.9-120.6l-58.4-54.9l-107.9 194.3c-6.2 11.1-20.2 15-31.1 8.9c-11.1-6.2-15.1-20.1-8.9-31.1l111.7-201.2c-1.6-3.7-2.4-8-1.8-12.4l12.2-89.8l-32.6 7.2l-25.1 69.8c-4.3 11.9-17.4 18.1-29.3 13.8c-11.9-4.3-18-17.4-13.8-29.3l29.4-81.7c2.7-7.4 9-12.9 16.6-14.6l68-15c4.8-3.7 10.9-5.6 17.4-4.7l42.4 6l115.4-126.4c8.5-9.3 23-10 32.3-1.5c9.3 8.5 10 23 1.5 32.3c-126.5 138.6-120 133.6-128.1 136.7l-16.9 124.2l44 41.3c3.7 3.5 6.1 8 6.9 13z" /><path class="s0" d="m537.4 169.5l-15 80.1c-5.7 30.1-50.5 21.2-45-8.5l10.9-57.8l-18.4-3.7l-3 97.7l36.6 82.4c0 0-17.7 10.5-43.5 17l14.7 117.4c1.7 13.6-8.9 25.8-22.7 25.8c-11.4 0-21.3-8.5-22.7-20.1l-14.8-118.2c-14.7-0.7-30.1-3.9-45.3-11l-1.8 2.5l21 84c3.1 12.3-4.4 24.7-16.6 27.8c-12.4 3-24.7-4.5-27.8-16.7l-23.6-94.4c-3.1-12.4 4.2-19.7 11.8-30.2q-0.1-0.2-0.3-0.3l55.5-83.9l1.8-58.7l-23.2 14.1c-10.9 6.7-25.1 3.1-31.6-7.8l-45-75.8c-6.5-10.9-2.9-24.9 7.9-31.4c10.9-6.4 24.9-2.8 31.4 8l33.2 55.9l28.9-17.6c0.6-19.5 12.6-26.6 23.8-26.2l34.3 1.2c8.1 0.3 15.1 4.9 18.9 11.4l51.6 10.3c12.3 2.5 20.3 14.4 18 26.7z" /><path class="s0" d="m480.6 62.3c0 25.3-20.5 45.8-45.7 45.8c-25.3 0-45.8-20.5-45.8-45.8c0-25.2 20.5-45.7 45.8-45.7c25.2 0 45.7 20.5 45.7 45.7z" /><path class="s0" d="m217.5 70c0 25.3-20.5 45.8-45.7 45.8c-25.3 0-45.8-20.5-45.8-45.8c0-25.2 20.5-45.7 45.8-45.7c25.2 0 45.7 20.5 45.7 45.7z" /></svg>